<?xml version="1.0" standalone="no"?>
<!DOCTYPE svg PUBLIC "-//W3C//DTD SVG 20010904//EN"
 "http://www.w3.org/TR/2001/REC-SVG-20010904/DTD/svg10.dtd">
<svg version="1.0" xmlns="http://www.w3.org/2000/svg"
 width="222.000000pt" height="200.000000pt" viewBox="0 0 222.000000 200.000000"
 preserveAspectRatio="xMidYMid meet">
<metadata>
Created by potrace 1.16, written by Peter Selinger 2001-2019
</metadata>
<g transform="translate(0.000000,200.000000) scale(0.100000,-0.100000)"
fill="#000000" stroke="none">
<path d="M1038 1868 c-21 -39 -27 -43 -67 -46 -36 -3 -48 1 -72 24 -23 22 -34
26 -61 21 -72 -12 -86 -23 -94 -72 -9 -61 -39 -76 -92 -45 l-35 21 -53 -36
c-53 -35 -54 -36 -54 -85 0 -59 -13 -69 -68 -52 -36 12 -38 11 -86 -37 l-49
-49 13 -45 c6 -25 9 -50 5 -56 -3 -6 -25 -10 -47 -9 -40 3 -41 2 -72 -54 l-31
-56 24 -26 c36 -38 23 -72 -30 -81 -40 -7 -59 -30 -59 -71 0 -23 18 -16 22 8
3 22 19 30 79 42 15 3 31 16 38 32 12 27 12 28 -34 90 -7 10 -5 23 5 42 14 24
21 27 61 24 40 -3 48 0 64 24 15 24 16 33 5 82 -12 52 -11 55 13 79 22 23 27
24 67 13 36 -10 45 -9 63 7 34 28 41 45 42 92 0 39 4 45 33 61 33 18 35 18 69
-3 33 -19 39 -19 77 -6 38 13 41 17 49 64 9 55 27 75 68 75 19 0 34 -9 49 -30
19 -26 28 -30 69 -30 55 0 69 9 105 68 24 38 30 42 65 42 36 0 39 -2 55 -45
17 -44 22 -48 85 -60 29 -6 38 -3 71 30 l39 38 38 -15 c35 -15 38 -19 41 -61
2 -25 8 -47 15 -50 7 -3 28 -12 47 -20 33 -14 39 -14 80 4 44 20 46 20 79 3
32 -18 33 -20 27 -65 -6 -45 -5 -49 28 -74 24 -18 42 -24 60 -20 14 3 37 7 50
10 20 4 31 -2 52 -30 l26 -35 -21 -36 c-20 -34 -21 -37 -4 -65 16 -26 23 -29
68 -29 47 0 52 -2 69 -35 19 -35 19 -36 -3 -84 -27 -56 -18 -87 27 -97 54 -12
59 -15 69 -36 12 -28 23 -10 12 19 -5 15 -20 24 -44 29 -48 9 -60 37 -34 80
24 40 24 44 -8 98 -27 43 -30 45 -74 46 -58 0 -66 16 -39 71 l19 41 -41 44
c-40 44 -41 44 -94 38 -71 -9 -88 4 -79 62 6 41 5 42 -43 78 -28 20 -54 36
-58 36 -5 0 -27 -9 -48 -21 -33 -17 -43 -19 -67 -9 -24 10 -28 18 -31 58 l-3
46 -62 20 -63 20 -40 -32 c-48 -39 -82 -36 -101 10 -20 49 -35 58 -99 58 -58
0 -59 0 -82 -42z"/>
<path d="M1226 1728 c-11 -44 -8 -51 24 -46 17 3 30 1 30 -4 0 -4 11 -8 24 -8
14 0 27 -4 30 -9 3 -5 20 -11 38 -13 18 -3 40 -8 50 -12 11 -5 18 -1 23 13 9
29 29 27 21 -3 -8 -31 24 -60 59 -54 19 4 25 1 25 -13 0 -12 7 -19 19 -19 10
0 26 -12 36 -26 19 -29 29 -24 39 21 7 29 7 29 -9 10 -16 -19 -16 -19 -12 8 3
18 0 27 -9 27 -8 0 -14 -4 -14 -10 0 -5 -7 -10 -15 -10 -9 0 -12 6 -9 15 6 15
-17 45 -35 45 -6 0 -11 5 -11 10 0 6 -9 10 -19 10 -11 0 -26 7 -35 15 -20 21
-36 19 -36 -5 0 -25 -20 -27 -21 -2 -1 9 -1 20 0 25 2 14 -27 7 -33 -8 -6 -17
-46 -21 -46 -5 0 6 7 13 15 16 23 9 18 24 -7 21 -13 -1 -31 -11 -40 -22 -17
-20 -17 -20 -18 4 0 24 -24 50 -46 51 -7 0 -14 -10 -18 -22z"/>
<path d="M790 1700 c-8 -5 -23 -11 -32 -14 -11 -3 -15 -12 -11 -25 6 -24 -12
-29 -21 -5 -8 22 -28 6 -21 -17 6 -19 -9 -27 -19 -10 -3 5 -15 7 -27 4 -14 -4
-19 -11 -16 -25 5 -16 3 -17 -9 -7 -10 8 -14 8 -14 0 0 -6 -8 -11 -17 -11 -13
0 -14 -3 -5 -12 7 -7 12 -16 12 -20 0 -13 -17 -9 -33 7 -13 12 -17 12 -31 -4
-12 -13 -14 -21 -7 -26 6 -3 11 -10 11 -16 0 -5 -9 -4 -20 3 -16 10 -22 10
-32 -1 -10 -11 -10 -14 0 -18 6 -3 12 -11 12 -19 0 -12 -4 -12 -20 -2 -28 18
-37 1 -12 -24 21 -21 22 -21 41 -4 11 10 19 21 17 25 -2 3 13 14 34 25 21 10
43 29 50 41 7 14 18 21 27 18 9 -4 16 2 20 15 3 13 10 19 19 15 8 -3 23 2 34
12 10 9 23 14 28 11 5 -3 20 2 33 12 13 9 32 15 42 14 9 -2 17 2 17 7 0 6 -4
11 -9 11 -5 0 -11 9 -14 20 -4 17 -2 20 14 15 11 -4 19 -2 19 4 0 13 -39 13
-60 1z"/>
<path d="M1073 1584 c-33 -37 -35 -42 -24 -62 8 -15 4 -26 -19 -53 l-29 -34
-1 28 c0 33 -15 36 -24 5 -11 -41 -7 -50 15 -43 17 6 20 3 17 -17 -2 -15 2
-22 10 -20 7 1 15 -5 18 -13 8 -20 24 -19 40 3 7 9 13 13 13 7 1 -5 -8 -21
-19 -35 -17 -22 -19 -23 -25 -7 -9 22 -21 22 -28 -2 -3 -11 -17 -22 -36 -26
-17 -4 -29 -11 -25 -16 3 -5 10 -6 16 -3 6 4 33 9 60 11 38 3 48 1 48 -11 0
-8 -8 -15 -17 -16 -10 0 -36 -2 -58 -3 -36 -2 -40 -5 -43 -32 -2 -16 -1 -27 3
-23 4 4 25 -4 46 -18 22 -14 44 -22 50 -19 5 4 25 -4 42 -18 18 -14 50 -30 71
-35 32 -9 38 -8 42 6 13 41 29 62 45 62 23 0 34 18 20 34 -6 7 -12 31 -14 52
-2 32 -7 40 -27 46 -13 4 -29 3 -34 -2 -7 -7 -6 -10 2 -10 7 0 12 -4 12 -10 0
-5 -11 -10 -25 -10 -18 0 -25 5 -25 20 0 11 7 20 15 20 8 0 15 5 15 11 0 7 9
9 23 6 12 -4 28 -2 36 2 16 10 6 32 -12 26 -7 -2 -27 -6 -44 -9 -30 -5 -33 -3
-33 19 0 14 5 25 10 25 14 0 12 27 -2 34 -9 3 -4 12 15 26 15 12 27 30 27 41
0 11 6 28 12 39 17 27 -3 49 -23 25 -8 -9 -21 -25 -31 -35 -9 -10 -18 -26 -20
-35 -6 -32 -21 -19 -33 28 -16 64 -25 71 -52 41z"/>
<path d="M230 1090 l-115 -5 0 -135 0 -135 146 -3 c142 -2 147 -3 153 -25 11
-43 6 -118 -10 -143 l-17 -25 721 3 c522 2 724 6 732 14 8 8 9 14 1 18 -16 10
-14 131 2 144 8 7 69 13 148 14 l134 3 0 135 0 135 -890 5 c-490 3 -942 3
-1005 0z m1174 -290 c-5 -5 -66 -24 -134 -41 -108 -27 -137 -31 -215 -26 -91
4 -203 33 -240 61 -18 14 12 15 289 16 201 0 307 -3 300 -10z m359 -12 c3 -12
3 -26 0 -31 -15 -25 -290 14 -308 44 -4 5 55 9 148 9 150 0 155 -1 160 -22z
m-286 -15 c40 -17 42 -20 45 -68 6 -67 -7 -77 -97 -73 l-70 3 -3 57 c-3 57 -3
57 35 77 47 25 40 24 90 4z m-663 -9 c21 -20 22 -107 1 -124 -9 -8 -28 -10
-55 -5 l-40 7 0 63 c0 41 4 65 13 68 26 11 66 6 81 -9z"/>
<path d="M1020 600 c-10 -6 -29 -83 -30 -114 0 -34 15 -6 25 47 l10 52 97 1
c109 0 100 7 113 -88 6 -39 4 -49 -9 -54 -21 -8 -32 2 -19 18 5 7 6 29 2 48
l-6 35 -2 -42 c0 -24 -5 -43 -10 -43 -10 0 -71 94 -71 110 0 18 -28 10 -33 -9
-2 -11 -15 -21 -28 -23 -23 -3 -35 -33 -14 -33 6 0 16 -4 23 -8 6 -5 17 -5 22
-2 6 3 10 2 10 -3 0 -5 10 -13 23 -18 18 -6 14 -8 -23 -11 -34 -3 -47 0 -58
14 -13 17 -14 17 -10 -2 2 -10 14 -22 28 -26 22 -6 21 -7 -10 -8 -20 -1 -41 4
-48 11 -9 9 -12 8 -12 -6 0 -9 -13 -29 -30 -43 -59 -49 -48 -53 159 -53 114 0
192 4 196 10 3 5 -9 23 -28 40 -32 28 -35 35 -41 110 -6 59 -12 83 -23 87 -19
7 -192 10 -203 3z"/>
</g>
</svg>
